<?xml version="1.0" encoding="UTF-8"?>
<svg version="1.1" xmlns="http://www.w3.org/2000/svg" width="1254" height="1254">
<path d="M0 0 C413.82 0 827.64 0 1254 0 C1254 413.82 1254 827.64 1254 1254 C840.18 1254 426.36 1254 0 1254 C0 840.18 0 426.36 0 0 Z " fill="#FDFDFD" transform="translate(0,0)"/>
<path d="M0 0 C3.965451 1.61067012 6.66811449 4.3837755 9.6875 7.3125 C14.78782381 12.13936781 20.09803197 16.56261019 25.6875 20.8125 C26.36321045 21.32659424 27.0389209 21.84068848 27.73510742 22.37036133 C55.64984072 43.36441987 86.06146974 59.39633653 119 71 C119.83225098 71.29841797 120.66450195 71.59683594 121.52197266 71.90429688 C143.84687797 79.81927895 167.45769026 83.9374721 191 86 C192.61032104 86.14248169 192.61032104 86.14248169 194.25317383 86.2878418 C204.83383558 87.10971879 215.39578987 87.18615116 226.00366211 87.18530273 C229.03318567 87.18747894 232.06233776 87.20567679 235.09179688 87.22460938 C254.1844142 87.28160516 272.95724769 85.75412515 291.75 82.375 C292.46214661 82.24916534 293.17429321 82.12333069 293.90802002 81.99368286 C312.31808463 78.703713 329.80589034 73.35326289 347 66 C348.66350012 65.30854131 350.32753428 64.61836553 351.9921875 63.9296875 C385.71848112 49.81583679 417.70754632 31.53412694 445.11328125 7.1171875 C449.73793605 3 449.73793605 3 453 3 C459.71935113 25.38887796 453.98579095 48.67981503 444 69 C443.5153125 69.99773437 443.030625 70.99546875 442.53125 72.0234375 C436.29349504 84.11775128 427.3913891 94.26931736 418 104 C417.46793945 104.556875 416.93587891 105.11375 416.38769531 105.6875 C412.20259346 109.98404649 407.77692011 113.75321393 403 117.375 C402.26088379 117.93662842 401.52176758 118.49825684 400.76025391 119.0769043 C394.36854919 123.85804156 387.77040551 128.09171811 380.80761719 131.98681641 C379.04053857 132.97727781 377.29014255 133.9933144 375.5390625 135.01171875 C362.27066088 142.56589662 347.85539183 147.716601 333.42578125 152.58203125 C332.78282104 152.7996814 332.13986084 153.01733154 331.47741699 153.24157715 C328.33139412 154.30446272 325.18219868 155.35117588 322.02294922 156.37451172 C307.51207783 161.20339716 298.32345321 167.37161964 291.15722656 181.1394043 C281.51522349 200.91381372 280.8916249 222.46878674 285.34375 243.7265625 C286 247 286 247 286 250 C282.62528174 249.41209324 279.70119778 248.55591351 276.5625 247.1953125 C270.18534812 244.58068023 263.62874316 242.73756351 257 240.875 C255.7934375 240.52824219 254.586875 240.18148437 253.34375 239.82421875 C241.8352265 236.55930067 230.28570865 234.49860424 218.5 232.5 C207.01477709 230.55235172 195.64063361 228.54512267 184.375 225.5625 C183.18390625 225.25602539 183.18390625 225.25602539 181.96875 224.94335938 C179.63495296 224.32930294 177.31841273 223.66951479 175 223 C173.85591675 222.71165283 173.85591675 222.71165283 172.6887207 222.41748047 C170.51171875 221.77734375 170.51171875 221.77734375 167 220 C165.80859375 216.875 165.80859375 216.875 165.4375 213 C163.69499262 199.91464233 158.84481934 187.81536494 152.5625 176.25 C152.22782715 175.61900391 151.8931543 174.98800781 151.54833984 174.33789062 C145.68243607 164.10341054 137.10996264 160.39706397 126.3125 156.625 C123.7013352 155.6776677 121.09517571 154.71682233 118.48828125 153.7578125 C117.8436795 153.52261902 117.19907776 153.28742554 116.53494263 153.04510498 C94.49441828 144.98548143 73.02790444 134.82967036 54 121 C53.14148438 120.3827002 53.14148438 120.3827002 52.265625 119.75292969 C24.11242063 99.28795962 2.34733699 70.71496829 -3.62280273 35.87353516 C-4.25763903 31.03727422 -4.32878307 26.24689448 -4.3125 21.375 C-4.32861328 20.40304687 -4.34472656 19.43109375 -4.36132812 18.4296875 C-4.36554934 12.14851373 -3.57215412 6.76980744 -1 1 C-0.67 0.67 -0.34 0.34 0 0 Z " fill="#010101" transform="translate(397,284)"/>
<path d="M0 0 C0.99 0 1.98 0 3 0 C3.48321121 6.29022316 1.85754051 10.86145353 -0.5625 16.625 C-0.92601562 17.50728271 -1.28953125 18.38956543 -1.6640625 19.29858398 C-8.74275022 36.18291905 -18.46207572 49.79617686 -31 63 C-31.85658203 63.97066406 -31.85658203 63.97066406 -32.73046875 64.9609375 C-46.51643168 80.05816168 -69.861627 90.30754572 -90 92 C-104.90902966 92.65176772 -119.46252423 92.51737472 -134 89 C-135.23105469 88.70996094 -136.46210937 88.41992188 -137.73046875 88.12109375 C-144.47448581 86.4226532 -150.99769348 84.33659745 -157.5625 82.0625 C-167.04302243 78.78731624 -176.71285699 76.60800571 -186.51611328 74.53320312 C-188.90129841 74.02118776 -191.27597957 73.47312233 -193.65234375 72.921875 C-230.2907968 64.83459197 -269.16658392 76.21332575 -301.47265625 93.36328125 C-305 95 -305 95 -308 94 C-303.87246756 68.77619067 -286.75598677 45.9007015 -266.6875 30.8125 C-254.60272064 22.39970067 -241.67885549 15.56479171 -227.5625 11.3125 C-226.56126099 11.00856323 -226.56126099 11.00856323 -225.53979492 10.69848633 C-214.40938776 7.49911159 -203.55001618 6.66488935 -192 6.75 C-190.97439468 6.75614822 -190.97439468 6.75614822 -189.92807007 6.76242065 C-169.77015497 6.9033769 -150.90354709 9.83854043 -131.18717957 13.78556824 C-122.93539697 15.4374661 -114.67771207 16.99565698 -106.375 18.375 C-104.99296387 18.60775635 -104.99296387 18.60775635 -103.58300781 18.84521484 C-67.22234509 24.78344598 -33.56302014 17.75136544 -1 1 C-0.67 0.67 -0.34 0.34 0 0 Z " fill="#C70203" transform="translate(1020,432)"/>
<path d="M0 0 C2.61069998 0.98084242 3.69108605 2.25783958 5.52734375 4.34765625 C14.38995086 13.47140832 25.38838512 18.0923555 37.1862793 22.1159668 C39.08486269 22.78340518 40.94605345 23.51932365 42.81640625 24.26171875 C48.13464682 26.26549705 53.6302232 27.53709633 59.15234375 28.84765625 C60.26343506 29.11368652 61.37452637 29.3797168 62.51928711 29.65380859 C69.55583039 31.29903432 76.43968139 32.50042549 83.62109375 33.29296875 C88.25249171 33.95012657 92.68344045 35.12577985 97.19726562 36.33129883 C101.35192982 37.4187309 105.38700661 38.131135 109.65234375 38.59765625 C119.19413677 39.80547815 128.24157786 43.00016116 137.37084961 45.92822266 C139.97194493 46.74799859 142.5836464 47.51485316 145.203125 48.2734375 C165.64993219 54.37995277 185.5331584 64.30526504 196.39453125 83.43359375 C204.92773048 100.30337472 204.33047513 122.9623004 199.46484375 141.1171875 C198.76740378 143.06288652 197.94922224 144.90573285 197.08984375 146.78515625 C196.75210938 147.67074219 196.414375 148.55632812 196.06640625 149.46875 C190.08055242 164.91546676 179.77559125 181.41141392 165.046875 189.97265625 C163.08984375 190.78515625 163.08984375 190.78515625 160.08984375 190.78515625 C160.60639319 185.8779366 162.20042202 181.82559434 164.15234375 177.34765625 C167.82629141 167.30553265 167.64067571 154.08316989 163.40625 144.2421875 C157.17429927 132.61044564 147.0167081 125.85977115 135.08984375 120.78515625 C134.48640137 120.52766602 133.88295898 120.27017578 133.26123047 120.00488281 C111.74904171 111.08785947 87.9567265 108.07243743 65.12817383 104.20019531 C34.10479926 98.88076832 34.10479926 98.88076832 21.08984375 92.78515625 C20.14238281 92.34558594 19.19492187 91.90601563 18.21875 91.453125 C7.70609906 86.16034789 -0.19372922 78.3585709 -6.91015625 68.78515625 C-7.58949219 67.86734375 -8.26882813 66.94953125 -8.96875 66.00390625 C-11.1690055 62.35599773 -12.14727732 59.08294487 -13.09765625 54.97265625 C-13.83647351 50.52217971 -13.83647351 50.52217971 -15.91015625 46.78515625 C-16.19340629 43.31448493 -16.14213256 39.82848088 -16.16015625 36.34765625 C-16.18078125 35.38666016 -16.20140625 34.42566406 -16.22265625 33.43554688 C-16.28952887 21.03903517 -12.36639912 9.90899725 -3.91015625 0.78515625 C-1.91015625 -0.21484375 -1.91015625 -0.21484375 0 0 Z " fill="#020202" transform="translate(523.91015625,508.21484375)"/>
<path d="M0 0 C4.99376211 2.39700581 9.7794926 5.01653086 14.5625 7.8125 C24.12414688 13.34539222 34.02949665 18.54615865 44.75390625 21.39453125 C47 22 47 22 49.78125 23.00390625 C74.21638942 30.56575158 100.25749388 24.20033007 124.3125 18.5625 C130.87285698 17.03234949 137.43522134 15.51106477 144 14 C145.15000488 13.73413086 146.30000977 13.46826172 147.48486328 13.19433594 C179.42882147 6.0214321 215.55976335 7.15331591 244.125 24.4375 C249.51371704 28.14541031 254.28180019 32.48517087 259 37 C259.60328125 37.54011719 260.2065625 38.08023438 260.828125 38.63671875 C268.92979681 46.15158723 277.78271801 57.80982543 282 68 C281.71298488 71.24876689 280.48123611 72.83625781 278.25 75.125 C274.51307003 79.26811802 272.29477716 83.95352103 270 89 C266.14190011 88.37066456 263.63100429 86.4984058 260.4375 84.3125 C252.26894281 79.02885557 243.34499477 76.44719089 234 74 C232.49566406 73.5978125 232.49566406 73.5978125 230.9609375 73.1875 C206.83543383 68.06349922 179.72554617 73.10356886 156.625 80.625 C151.19943632 82.38945907 145.90778738 83.74879004 140.25 84.53125 C137.86342291 84.87546785 135.48871143 85.30469528 133.125 85.78125 C122.76540762 87.81212878 112.52869517 88.32353324 102 88.375 C100.68862061 88.38869629 99.37724121 88.40239258 98.02612305 88.41650391 C90.15300234 88.37944921 83.48701221 87.34219795 76 85 C74.1104312 84.65161796 72.21543245 84.32837282 70.3125 84.0625 C66.05523281 83.33285506 62.7616123 82.1420808 59.00390625 80.046875 C56.84132584 78.9171059 54.68053239 78.16975263 52.375 77.375 C31.61021711 69.0817483 14.06664327 48.9874881 5.09082031 28.97265625 C3.47186576 25.05245934 2.17280833 21.07284348 1 17 C0.75765625 16.22140625 0.5153125 15.4428125 0.265625 14.640625 C-1.06829972 9.98991448 -1.25206063 5.78915202 -1 1 C-0.67 0.67 -0.34 0.34 0 0 Z " fill="#020202" transform="translate(226,425)"/>
<path d="M0 0 C2.79400215 2.20280749 5.40508842 4.51180635 8.0078125 6.9375 C8.75877197 7.6190918 8.75877197 7.6190918 9.52490234 8.31445312 C24.37443894 21.88126 34.89784093 38.70469131 45.0078125 55.9375 C45.40210449 56.5867041 45.79639648 57.2359082 46.20263672 57.90478516 C49.0078125 62.60139467 49.0078125 62.60139467 49.0078125 65.9375 C44.53387683 66.30204291 41.75900242 65.1415695 37.7578125 63.1875 C37.13011963 62.88602051 36.50242676 62.58454102 35.85571289 62.27392578 C33.56771581 61.1725265 31.2875503 60.05589536 29.0078125 58.9375 C9.95796249 49.35418739 9.95796249 49.35418739 -9.9921875 41.9375 C-10.61738281 41.74285156 -11.24257813 41.54820312 -11.88671875 41.34765625 C-26.96405603 38.41051262 -40.20827406 42.92129308 -52.74487305 51.22314453 C-60.05014574 56.23998174 -66.92499174 61.81060861 -73.79199219 67.40332031 C-87.5566886 78.60886307 -101.7030254 88.99920325 -117.11083984 97.84765625 C-119.049615 98.97076711 -120.96811332 100.1240717 -122.88671875 101.28125 C-131.62206286 106.46957361 -140.35481382 110.17839605 -150.02050781 113.27905273 C-152.07122882 113.96389604 -154.08363313 114.72028107 -156.1015625 115.49609375 C-159.43833564 116.76328472 -162.77363833 117.76694268 -166.2421875 118.625 C-167.23734375 118.87636719 -168.2325 119.12773437 -169.2578125 119.38671875 C-171.9921875 119.9375 -171.9921875 119.9375 -175.9921875 119.9375 C-175.53881318 114.66187158 -172.68134005 111.14603103 -169.7421875 106.9375 C-165.22725749 100.32138841 -160.87158651 93.63799528 -156.6796875 86.8125 C-156.14641846 85.94657227 -155.61314941 85.08064453 -155.0637207 84.18847656 C-153.37174568 81.43904845 -151.68192593 78.68830313 -149.9921875 75.9375 C-138.36157601 57.01154737 -126.68727199 38.64060846 -111.9921875 21.9375 C-111.30640625 21.11765625 -110.620625 20.2978125 -109.9140625 19.453125 C-104.86277778 13.49835846 -99.14374497 8.72406691 -92.9921875 3.9375 C-92.34765625 3.40382812 -91.703125 2.87015625 -91.0390625 2.3203125 C-64.05527687 -19.38403682 -28.19047723 -19.43155611 0 0 Z " fill="#020202" transform="translate(886.9921875,212.0625)"/>
<path d="M0 0 C1.65904039 1.27465883 3.30646846 2.56469231 4.9375 3.875 C5.59105469 4.38804687 6.24460937 4.90109375 6.91796875 5.4296875 C18.56411757 14.94199449 27.18381648 28.1596318 34.9375 40.875 C35.62457031 41.99390625 36.31164062 43.1128125 37.01953125 44.265625 C41.00378136 50.80227152 44.8177338 57.41390801 48.5 64.125 C52.86542954 72.0717557 57.43703684 79.89041001 62.0625 87.6875 C62.71935791 88.79577148 63.37621582 89.90404297 64.05297852 91.04589844 C68.07099636 97.80283009 68.07099636 97.80283009 72.20996094 104.48583984 C72.5811203 105.07628586 72.95227966 105.66673187 73.33468628 106.27507019 C74.37238781 107.92084267 75.41814142 109.56153005 76.46435547 111.2019043 C77.9375 113.875 77.9375 113.875 77.9375 116.875 C71.51227957 116.38075227 66.25451233 115.19721606 60.3125 112.75 C59.53616211 112.43796631 58.75982422 112.12593262 57.95996094 111.80444336 C31.55169461 101.05821075 9.29174477 85.98360542 -12.375 67.5625 C-12.89787598 67.11801514 -13.42075195 66.67353027 -13.95947266 66.21557617 C-14.49620605 65.75900635 -15.03293945 65.30243652 -15.5859375 64.83203125 C-16.14120117 64.35975098 -16.69646484 63.8874707 -17.26855469 63.40087891 C-18.53272168 62.32561438 -19.7963431 61.24970827 -21.05957031 60.17333984 C-43.698803 40.88027147 -43.698803 40.88027147 -72.0625 34.3125 C-72.86896973 34.28534912 -73.67543945 34.25819824 -74.50634766 34.23022461 C-87.72979824 34.31653956 -100.01697064 42.76452182 -111.46484375 48.61523438 C-117.46124177 51.65327656 -123.4832332 54.60221338 -129.6328125 57.31640625 C-131.3036792 58.05612671 -131.3036792 58.05612671 -133.00830078 58.81079102 C-135.94240221 59.83315298 -137.99077015 60.10911485 -141.0625 59.875 C-139.70098082 55.13834644 -137.64439814 51.26442238 -134.9375 47.1875 C-134.33808594 46.27230591 -134.33808594 46.27230591 -133.7265625 45.33862305 C-118.02539978 21.5539701 -99.86559427 0.17007089 -73.0625 -11.125 C-72.13179688 -11.53621094 -71.20109375 -11.94742188 -70.2421875 -12.37109375 C-46.76189984 -21.22984458 -19.69939353 -14.04019703 0 0 Z " fill="#030303" transform="translate(455.0625,214.125)"/>
<path d="M0 0 C5.36804159 4.0153972 9.42935324 7.66721669 13.15234375 13.28125 C13.52939453 13.82845703 13.90644531 14.37566406 14.29492188 14.93945312 C22.11706745 26.47472888 25.08099577 39.97807195 23.46484375 53.84375 C19.72007853 70.90467574 10.24462074 85.30762326 -4.53515625 94.84375 C-17.6939217 102.22795018 -32.586744 104.89971451 -47.41015625 101.84375 C-61.81232506 97.74789511 -73.846271 89.60990084 -81.91015625 76.84375 C-90.41254828 61.57316488 -92.24575098 44.62278091 -87.56640625 27.66015625 C-84.23709618 18.56760867 -78.24885787 11.67606826 -71.53515625 4.84375 C-70.97054687 4.26625 -70.4059375 3.68875 -69.82421875 3.09375 C-50.34353402 -15.15157423 -21.10256099 -14.13504875 0 0 Z " fill="#020202" transform="translate(655.53515625,242.15625)"/>
<path d="M0 0 C23.11959249 2.19841475 52.80986704 6.9011268 72 21 C83.78884942 44.57769884 61.96086522 97.09926974 54.07421875 120.9453125 C51.34774555 128.84517008 48.56704066 136.60987537 43 143 C42.54109375 143.54011719 42.0821875 144.08023438 41.609375 144.63671875 C38.86118428 147.39245944 36.338162 148.39312635 32.5625 148.6875 C28.19983386 148.40106232 25.61579413 147.01352724 22.50390625 143.98828125 C19.76626542 140.36890675 18.37253188 136.28731733 17 132 C16.67 131.01 16.34 130.02 16 129 C15.88400435 127.16507816 15.82149344 125.32657975 15.7890625 123.48828125 C15.76287842 122.35430908 15.73669434 121.22033691 15.7097168 120.05200195 C15.68176025 118.81796631 15.65380371 117.58393066 15.625 116.3125 C14.58597815 80.82779026 11.04385524 44.03839277 0.828125 9.9453125 C-0.13066591 6.53527315 -0.14386622 3.52472235 0 0 Z " fill="#020202" transform="translate(581,636)"/>
<path d="M0 0 C3.12556475 1.57819443 5.44513526 3.59468361 7.98046875 6 C8.31046875 4.02 8.64046875 2.04 8.98046875 0 C16.24046875 0 23.50046875 0 30.98046875 0 C30.98046875 24.09 30.98046875 48.18 30.98046875 73 C23.72046875 73 16.46046875 73 8.98046875 73 C8.65046875 71.02 8.32046875 69.04 7.98046875 67 C7.20123047 67.50660156 7.20123047 67.50660156 6.40625 68.0234375 C5.70886719 68.46945312 5.01148438 68.91546875 4.29296875 69.375 C3.60847656 69.81585937 2.92398438 70.25671875 2.21875 70.7109375 C-5.05350822 74.89914904 -12.83926432 74.97581864 -21.01953125 74 C-28.87697536 71.85895041 -35.16282804 66.40854921 -40.01953125 60 C-46.19994387 48.12593756 -48.17017655 35.58873074 -45.21875 22.4296875 C-41.69205709 13.14636528 -35.53756543 5.48138608 -26.64453125 0.9375 C-17.97141309 -2.93098603 -8.97602569 -3.4007529 0 0 Z " fill="#080807" transform="translate(887.01953125,870)"/>
<path d="M0 0 C1.35339333 0.97267891 2.6930767 1.96572283 4 3 C4.33 1.35 4.66 -0.3 5 -2 C12.26 -2 19.52 -2 27 -2 C27 21.76 27 45.52 27 70 C19.74 70 12.48 70 5 70 C4.67 68.35 4.34 66.7 4 65 C3.23816406 65.50660156 3.23816406 65.50660156 2.4609375 66.0234375 C1.77257812 66.46945312 1.08421875 66.91546875 0.375 67.375 C-0.29789063 67.81585937 -0.97078125 68.25671875 -1.6640625 68.7109375 C-9.56628136 73.07169373 -19.23227646 73.60996077 -27.8828125 71.1953125 C-36.6256037 67.2213165 -44.14458284 59.79035112 -48 51 C-51.15819238 41.54367829 -52.2833187 27.23868021 -48.375 17.875 C-47.26171875 15.87890625 -47.26171875 15.87890625 -46 14 C-45.55269531 13.30777344 -45.10539062 12.61554687 -44.64453125 11.90234375 C-34.13041866 -3.17821989 -16.86775425 -9.28813724 0 0 Z " fill="#070707" transform="translate(557,872)"/>
<path d="M0 0 C23.20948802 -2.3653445 23.20948802 -2.3653445 29.04931641 1.27880859 C32.14164838 4.65473003 33.71979628 8.69192418 35.22900391 12.96386719 C36.44341544 16.17102115 38.16575705 18.93977715 39.9375 21.875 C40.48277344 22.84179688 41.02804688 23.80859375 41.58984375 24.8046875 C42.8124587 27.11908273 42.8124587 27.11908273 45 28 C45.26731934 27.28884033 45.53463867 26.57768066 45.81005859 25.8449707 C47.03614748 22.91357682 48.46629021 20.24052993 50.0390625 17.48046875 C50.56193848 16.55903076 51.08481445 15.63759277 51.62353516 14.68823242 C52.28401855 13.53299072 52.94450195 12.37774902 53.625 11.1875 C55.72875 7.495625 57.8325 3.80375 60 0 C68.91 0 77.82 0 87 0 C85.53157455 3.67106361 84.19896347 6.5173206 82.1640625 9.81640625 C81.59953369 10.73623291 81.03500488 11.65605957 80.45336914 12.60375977 C79.54832642 14.06833618 79.54832642 14.06833618 78.625 15.5625 C78.00810303 16.57304443 77.39120605 17.58358887 76.75561523 18.62475586 C73.66337669 23.68985447 70.5425444 28.73411644 67.37109375 33.75 C66.26820969 35.5208212 65.1653442 37.29165397 64.0625 39.0625 C63.53672363 39.875979 63.01094727 40.68945801 62.46923828 41.52758789 C60.42946145 44.8275537 59.04427255 47.10056828 58.8515625 51.015625 C60.49005231 55.27346926 62.80192236 58.89189477 65.3125 62.6875 C66.40257684 64.37354724 67.49241338 66.05974986 68.58203125 67.74609375 C69.14486816 68.60960449 69.70770508 69.47311523 70.28759766 70.36279297 C73.06183583 74.63529378 75.78024659 78.9426963 78.5 83.25 C78.99153564 84.02303467 79.48307129 84.79606934 79.98950195 85.5925293 C88 98.23291024 88 98.23291024 88 101 C79.46856831 102.36602254 70.36511113 103.67756274 62 101 C56.06040876 96.03082085 53.15159465 88.7224338 50.21240234 81.72265625 C48.50014032 77.87747983 46.32337482 74.50383276 44 71 C39.52150091 77.50075541 35.50030838 84.1881681 31.625 91.0625 C29.76875 94.341875 27.9125 97.62125 26 101 C17.42 101 8.84 101 0 101 C1.62779861 96.93050347 3.41850784 93.23117778 5.5625 89.4375 C5.93165527 88.77637207 6.30081055 88.11524414 6.68115234 87.43408203 C9.46434994 82.51981228 12.40858949 77.71674471 15.41015625 72.93359375 C16.1929055 71.67733823 16.97537429 70.42090791 17.75756836 69.16430664 C18.93562268 67.27190767 20.11905012 65.384279 21.32229614 63.50778198 C22.46184771 61.73042456 23.57999301 59.94106844 24.6953125 58.1484375 C25.35547363 57.10864746 26.01563477 56.06885742 26.69580078 54.99755859 C28.29935888 51.3119565 28.1911562 49.8156501 27 46 C25.73524672 43.50602816 24.44670232 41.17636311 22.9921875 38.80078125 C22.58847931 38.12508591 22.18477112 37.44939056 21.76882935 36.7532196 C20.47970026 34.60087291 19.17747045 32.45679344 17.875 30.3125 C17.0225995 28.89177849 16.17102936 27.47055843 15.3203125 26.04882812 C11.08899415 18.99782334 6.78508319 12.00764181 2.28173828 5.12573242 C1 3 1 3 0 0 Z " fill="#060505" transform="translate(204,841)"/>
<path d="M0 0 C4.37235212 3.57483509 8.74430298 7.73670696 11 13 C9.8442468 16.46725961 9.28847149 16.71790649 6.25390625 18.48046875 C5.49916016 18.92197266 4.74441406 19.36347656 3.96679688 19.81835938 C3.17337891 20.27017578 2.37996094 20.72199219 1.5625 21.1875 C0.77294922 21.65091797 -0.01660156 22.11433594 -0.83007812 22.59179688 C-6.71788706 26 -6.71788706 26 -9 26 C-9.433125 25.071875 -9.86625 24.14375 -10.3125 23.1875 C-12.86395974 18.36807604 -14.87038044 16.76833039 -20 15 C-25.10104049 14.36969902 -29.53028106 14.27954954 -34.1875 16.5625 C-36.26458799 18.97713716 -36.26458799 18.97713716 -36.625 22.5 C-36.3253785 26.01104044 -36.3253785 26.01104044 -34.15234375 27.9765625 C-29.68890083 30.84157295 -24.96334591 32.25410943 -19.9375 33.875 C6.82045318 42.9126203 6.82045318 42.9126203 13.19140625 55.3203125 C15.65855639 63.49647189 14.90357565 73.46206082 11 81 C7.7738166 86.80468604 3.89475601 90.02699262 -2 93 C-3.06541016 93.59167969 -3.06541016 93.59167969 -4.15234375 94.1953125 C-14.62502632 99.04974883 -28.69522345 98.55995228 -39.8046875 96.1875 C-49.38916857 92.60265513 -56.97148368 85.41338557 -62.35546875 76.82421875 C-63.19778641 74.44020451 -62.88032907 73.35310038 -62 71 C-60.44946289 69.71972656 -60.44946289 69.71972656 -58.47265625 68.640625 C-57.76302734 68.24746094 -57.05339844 67.85429688 -56.32226562 67.44921875 C-55.57654297 67.05347656 -54.83082031 66.65773438 -54.0625 66.25 C-53.32064453 65.83878906 -52.57878906 65.42757812 -51.81445312 65.00390625 C-46.31061825 62 -46.31061825 62 -44 62 C-42.7109375 63.4609375 -42.7109375 63.4609375 -41.375 65.375 C-40.92898438 66.00148438 -40.48296875 66.62796875 -40.0234375 67.2734375 C-39 69 -39 69 -39 71 C-37.576875 71.4640625 -37.576875 71.4640625 -36.125 71.9375 C-33 73 -33 73 -31 74 C-28.37953265 74.17741233 -25.80989117 74.27747251 -23.1875 74.3125 C-22.47529297 74.34150391 -21.76308594 74.37050781 -21.02929688 74.40039062 C-17.3514593 74.44461994 -15.19178092 74.11562152 -12.01953125 72.203125 C-9.66408848 70.05130515 -9.66408848 70.05130515 -9.5 66.4375 C-10.03506342 62.75893901 -10.25397999 62.2163526 -13 60 C-14.92013671 59.03337946 -14.92013671 59.03337946 -17.0625 58.31640625 C-17.85422607 58.03079834 -18.64595215 57.74519043 -19.46166992 57.45092773 C-20.29931885 57.15774658 -21.13696777 56.86456543 -22 56.5625 C-22.85634033 56.25320557 -23.71268066 55.94391113 -24.5949707 55.62524414 C-28.18982257 54.32992764 -31.79078268 53.0693406 -35.41796875 51.8671875 C-44.84244008 48.70354268 -51.94980721 43.7493786 -57 35 C-59.90987702 27.76030597 -60.39998823 19.61871117 -58.125 12.11328125 C-54.08560373 3.43655176 -47.92649314 -2.57071016 -39 -6 C-25.36532118 -10.90960657 -11.98165794 -7.31765687 0 0 Z " fill="#070606" transform="translate(734,847)"/>
<path d="M0 0 C7.26 0 14.52 0 22 0 C22.33 11.22 22.66 22.44 23 34 C25.97 32.02 28.94 30.04 32 28 C41.65796993 25.58550752 50.2073522 27.10210928 58.8515625 32.0625 C64.61469334 36.31835046 67.85327709 43.09238482 69 50 C69.08285127 51.74820286 69.11786822 53.49910795 69.11352539 55.24926758 C69.11341209 56.78028862 69.11341209 56.78028862 69.11329651 58.34223938 C69.10813522 59.4319957 69.10297394 60.52175201 69.09765625 61.64453125 C69.0962413 62.7694548 69.09482635 63.89437836 69.09336853 65.0533905 C69.08777931 68.63978759 69.07522872 72.22612184 69.0625 75.8125 C69.05748361 78.24674389 69.05292094 80.68098876 69.04882812 83.11523438 C69.0386651 89.0768665 69.01908742 95.03836305 69 101 C61.74 101 54.48 101 47 101 C46.97421875 97.58140625 46.9484375 94.1628125 46.921875 90.640625 C46.88346644 87.33097077 46.83830222 84.02147297 46.79248047 80.71191406 C46.76424896 78.41120873 46.74304534 76.11040601 46.72900391 73.80957031 C46.70760514 70.50274721 46.66096892 67.19709774 46.609375 63.890625 C46.60814636 62.86132874 46.60691772 61.83203247 46.60565186 60.77154541 C46.58336214 55.19688688 46.58336214 55.19688688 44.08691406 50.38183594 C39.55859771 47.38344209 35.33796883 47.24794314 30 48 C26.87421857 49.6720747 24.60718825 51.7856235 23 55 C22.88213309 56.48012824 22.82307062 57.96516466 22.79467773 59.44970703 C22.77473251 60.37051056 22.75478729 61.29131409 22.73423767 62.24002075 C22.70916893 63.73382767 22.70916893 63.73382767 22.68359375 65.2578125 C22.66281265 66.27600067 22.64203156 67.29418884 22.62062073 68.3432312 C22.55510534 71.60375055 22.49623098 74.86435206 22.4375 78.125 C22.39431668 80.33203983 22.35070245 82.53907128 22.30664062 84.74609375 C22.19860904 90.16397942 22.09955024 95.58192521 22 101 C14.74 101 7.48 101 0 101 C0 67.67 0 34.34 0 0 Z " fill="#0A0A0A" transform="translate(760,841)"/>
<path d="M0 0 C6.93 0 13.86 0 21 0 C22.95098085 1.95098085 22.25415108 5.64674929 22.31640625 8.31640625 C22.33718735 9.04746078 22.35796844 9.77851532 22.37937927 10.53172302 C22.44495024 12.87521656 22.50379432 15.21882539 22.5625 17.5625 C22.60567808 19.14779855 22.64929213 20.73308529 22.69335938 22.31835938 C22.8006392 26.21212037 22.9018849 30.10599772 23 34 C23.7101123 33.48143433 23.7101123 33.48143433 24.43457031 32.95239258 C25.05944336 32.50017334 25.68431641 32.0479541 26.328125 31.58203125 C26.9459082 31.1331958 27.56369141 30.68436035 28.20019531 30.22192383 C33.88007308 26.36573986 40.37048494 26.18207282 47 27 C55.18737164 29.19486896 61.46770121 32.7028727 66 40 C69.53511812 46.44273627 69.39092064 52.25240047 69.29296875 59.49609375 C69.28872391 60.68477554 69.28447906 61.87345734 69.28010559 63.09815979 C69.26337251 66.87817457 69.2257289 70.65764755 69.1875 74.4375 C69.17244628 77.00715373 69.15875908 79.57681586 69.14648438 82.14648438 C69.11348635 88.43119693 69.06173995 94.71550674 69 101 C62.07 101 55.14 101 48 101 C47.97421875 97.66519531 47.9484375 94.33039063 47.921875 90.89453125 C47.88345087 87.66096594 47.83829167 84.42755989 47.79248047 81.1940918 C47.76427358 78.94872656 47.74305768 76.70326209 47.72900391 74.45776367 C47.70757108 71.22783611 47.66091729 67.99910144 47.609375 64.76953125 C47.60814636 63.76727005 47.60691772 62.76500885 47.60565186 61.7323761 C47.51394438 57.35784031 47.42035605 54.70656417 45.14941406 50.8894043 C41.33823071 47.53925119 37.37867143 47.59937226 32.515625 47.65625 C28.2805347 48.23495799 26.75409208 49.7515837 24 53 C22.70248012 58.24115903 22.78227594 63.62124792 22.68359375 68.9921875 C22.66281265 69.93812775 22.64203156 70.88406799 22.62062073 71.8586731 C22.55552415 74.86404541 22.49642664 77.86950101 22.4375 80.875 C22.3942768 82.91927926 22.35066132 84.96355026 22.30664062 87.0078125 C22.19914974 92.00512441 22.09978007 97.00250444 22 102 C14.74 102 7.48 102 0 102 C0 68.34 0 34.68 0 0 Z " fill="#0A0A0A" transform="translate(303,841)"/>
<path d="M0 0 C8.69115088 5.08350335 15.10320105 12.84534023 18.50390625 22.375 C19.71332063 28.77442095 19.37214905 35.52317512 19 42 C18 43 18 43 15.94358826 43.12025452 C15.03979935 43.11803391 14.13601044 43.11581329 13.20483398 43.11352539 C12.18385117 43.11344986 11.16286835 43.11337433 10.11094666 43.11329651 C9.0005452 43.10813522 7.89014374 43.10297394 6.74609375 43.09765625 C5.61551041 43.0962413 4.48492706 43.09482635 3.32008362 43.09336853 C-0.30747065 43.08775019 -3.93496424 43.07519458 -7.5625 43.0625 C-10.01497307 43.05748736 -12.4674471 43.05292405 -14.91992188 43.04882812 C-20.94663545 43.0377748 -26.97331339 43.02101884 -33 43 C-32.2408027 44.13152684 -31.47197728 45.25659712 -30.69921875 46.37890625 C-30.27213623 47.00611572 -29.84505371 47.6333252 -29.4050293 48.27954102 C-26.5513349 51.77389105 -22.97567278 52.70839987 -18.64453125 53.34765625 C-12.65044984 53.71008908 -8.94636155 52.35831626 -4.0078125 48.99609375 C-2 48 -2 48 -0.12890625 48.1015625 C2.89437794 49.3774439 5.46774248 51.10555614 8.1875 52.9375 C9.25355469 53.64777344 10.31960938 54.35804688 11.41796875 55.08984375 C14 57 14 57 15 59 C11.99820914 63.34174239 8.75485919 65.54473952 4.0625 67.75 C3.15081055 68.20439453 3.15081055 68.20439453 2.22070312 68.66796875 C-7.4367471 73.35605138 -19.65115325 73.36294401 -30.1171875 71.421875 C-38.82356655 68.36212517 -46.60509334 61.10100994 -51.0390625 53.06640625 C-55.54404931 43.37885331 -56.74594898 32.49673008 -54.30859375 22.03125 C-50.35658649 11.3161843 -42.78849751 3.06502856 -32.5625 -1.875 C-21.92215396 -6.00030355 -10.03493762 -5.58349302 0 0 Z " fill="#070707" transform="translate(440,872)"/>
<path d="M0 0 C0 6.93 0 13.86 0 21 C4.95 21 9.9 21 15 21 C15 27.6 15 34.2 15 41 C10.05 41 5.1 41 0 41 C0.11979181 45.23604232 0.24239341 49.47180389 0.37231445 53.70751953 C0.41566231 55.1488762 0.45733752 56.59028418 0.49731445 58.03173828 C0.55502088 60.10204541 0.61871371 62.17209432 0.68359375 64.2421875 C0.73858032 66.11173096 0.73858032 66.11173096 0.79467773 68.01904297 C0.80289479 70.92636942 0.80289479 70.92636942 2 73 C5.01490557 74.00496852 7.04181692 74.10335303 10.1875 74.0625 C12.5696875 74.0315625 12.5696875 74.0315625 15 74 C15 80.27 15 86.54 15 93 C9.33329181 95.8333541 -0.87117466 94.76252167 -6.94921875 93.28125 C-12.72075581 90.85112913 -16.52969259 87.20546111 -20 82 C-21.25681817 77.60386321 -21.12837923 73.17050121 -21.09765625 68.63671875 C-21.0962413 67.84473587 -21.09482635 67.05275299 -21.09336853 66.23677063 C-21.08779457 63.72030781 -21.07524693 61.20393569 -21.0625 58.6875 C-21.05748163 56.97591275 -21.05291931 55.26432409 -21.04882812 53.55273438 C-21.03783368 49.36845492 -21.02058707 45.18424281 -21 41 C-24.96 41 -28.92 41 -33 41 C-33 34.4 -33 27.8 -33 21 C-29.37 21 -25.74 21 -22 21 C-22 16.38 -22 11.76 -22 7 C-6.95 0 -6.95 0 0 0 Z " fill="#080808" transform="translate(962,849)"/>
<path d="M0 0 C4.56685984 0.34251449 8.10493887 1.86386749 12.18359375 3.76171875 C16.40690828 5.61857132 20.73119749 7.18461076 25.05737305 8.78344727 C28.79663967 10.16776032 32.50412713 11.59627989 36.1875 13.125 C48.20544325 17.98504812 59.22206721 20.18884866 72.125 20.25 C73.72214844 20.2809375 73.72214844 20.2809375 75.3515625 20.3125 C85.93091893 20.3638561 95.20537947 18.05860613 104.84375 13.76953125 C107 13 107 13 111 13 C110.69500618 16.23067527 110.25380415 17.72512911 108.0234375 20.140625 C105.06338107 22.49819207 102.07764578 24.79900071 99 27 C98.45537109 27.39300293 97.91074219 27.78600586 97.34960938 28.19091797 C78.41326038 41.51139396 55.58025106 45.10068846 32.91796875 41.2265625 C25.79884741 39.78329367 19.31881218 37.62746625 13 34 C8.72108313 32.08186485 4.45298707 30.45938232 0 29 C-0.16729064 25.03092526 -0.32788226 21.06164279 -0.48217773 17.09204102 C-0.53565802 15.74072921 -0.59099194 14.38948948 -0.64819336 13.03833008 C-0.72993571 11.09997011 -0.80453323 9.16131296 -0.87890625 7.22265625 C-0.9260376 6.05484619 -0.97316895 4.88703613 -1.02172852 3.68383789 C-1 1 -1 1 0 0 Z " fill="#080808" transform="translate(876,283)"/>
<path d="M0 0 C7.26 0 14.52 0 22 0 C22 34.32 22 68.64 22 104 C14.74 104 7.48 104 0 104 C0 69.68 0 35.36 0 0 Z " fill="#0A0A0A" transform="translate(600,838)"/>
<path d="M0 0 C7.26 0 14.52 0 22 0 C22 34.32 22 68.64 22 104 C14.74 104 7.48 104 0 104 C0 69.68 0 35.36 0 0 Z " fill="#0B0B0A" transform="translate(472,838)"/>
<path d="M0 0 C0.10819381 3.354008 0.08094073 6.64674136 0 10 C0.00435059 10.70737305 0.00870117 11.41474609 0.01318359 12.14355469 C0.00625158 23.11000092 0.00625158 23.11000092 -2 28 C-5.91508832 31.44070536 -10.03972717 32.6158692 -15 34 C-16.63279542 34.71153929 -18.25871278 35.43921888 -19.875 36.1875 C-40.04075822 43.84984692 -64.89677007 43.98993343 -84.765625 35.421875 C-92.96407001 31.65994394 -100.95760077 26.80939108 -107 20 C-107 19.34 -107 18.68 -107 18 C-105.49986903 18.14447983 -103.99990298 18.29067215 -102.5 18.4375 C-101.24703125 18.55931641 -101.24703125 18.55931641 -99.96875 18.68359375 C-97.79542188 18.91522477 -95.6275963 19.2001738 -93.46484375 19.515625 C-77.2271016 21.54868977 -60.60416333 20.96058279 -45 16 C-44.33548828 15.79681152 -43.67097656 15.59362305 -42.98632812 15.38427734 C-36.26250983 13.32547131 -29.6951538 11.02045216 -23.3203125 8.0390625 C-19.28865143 6.23363852 -15.14486315 4.71435631 -11.015625 3.1484375 C-9.09586851 2.41733852 -7.18756932 1.65483436 -5.296875 0.8515625 C-3 0 -3 0 0 0 Z " fill="#C70809" transform="translate(372,278)"/>
<path d="M0 0 C0 7.26 0 14.52 0 22 C-1.835625 22.20625 -3.67125 22.4125 -5.5625 22.625 C-11.5031497 23.59404215 -15.12746291 25.38804644 -19 30 C-20.71688134 33.43376268 -20.24509002 37.38114365 -20.31640625 41.1640625 C-20.33718735 42.07127045 -20.35796844 42.97847839 -20.37937927 43.91317749 C-20.44487135 46.8170398 -20.50375814 49.72099405 -20.5625 52.625 C-20.60568555 54.59115542 -20.64929985 56.55730147 -20.69335938 58.5234375 C-20.80136093 63.34886539 -20.90043677 68.17436101 -21 73 C-28.26 73 -35.52 73 -43 73 C-43 49.24 -43 25.48 -43 1 C-35.74 1 -28.48 1 -21 1 C-20.67 3.64 -20.34 6.28 -20 9 C-19.505 8.2575 -19.01 7.515 -18.5 6.75 C-12.84409391 0.5285033 -8.47317096 0 0 0 Z " fill="#090909" transform="translate(1033,869)"/>
<path d="M0 0 C6.93 0 13.86 0 21 0 C21 23.76 21 47.52 21 72 C14.07 72 7.14 72 0 72 C0 48.24 0 24.48 0 0 Z " fill="#030303" transform="translate(1044,870)"/>
<path d="M0 0 C4.21191871 3.81078359 8.15099199 7.43529406 8.86328125 13.35546875 C9.10225603 20.46182391 7.12511501 25.20818766 2.75 30.75 C-2.36527041 34.66167737 -8.15979496 35.05811263 -14.375 34.375 C-19.27315394 32.83832425 -22.32804689 30.0244122 -25.234375 25.88671875 C-27.74237258 20.36397066 -27.51187799 13.83977102 -25.63671875 8.125 C-20.57255356 -1.54484628 -9.67079345 -4.65630796 0 0 Z " fill="#F6F6F6" transform="translate(888.375,889.625)"/>
<path d="M0 0 C4.05523038 2.85709413 7.51585617 6.46921234 9.75 10.9375 C10.47548568 18.10910434 10.13318689 23.13273898 5.75 28.9375 C0.35366069 34.05710396 -4.50779642 35.42375595 -11.81640625 35.25 C-15.50605138 34.77620929 -17.5166829 33.41050119 -20.25 30.9375 C-24.46015204 25.36189324 -25.91192251 20.89370381 -25.25 13.9375 C-24.28412263 9.29824649 -23.2001739 5.8876739 -19.8125 2.5 C-13.22879582 -1.51445377 -7.49825146 -2.45135144 0 0 Z " fill="#F7F7F7" transform="translate(553.25,889.0625)"/>
<path d="M0 0 C2.31 0 4.62 0 7 0 C8.79296875 1.80859375 8.79296875 1.80859375 10.1875 4.4375 C10.75726562 5.43265625 11.32703125 6.4278125 11.9140625 7.453125 C12.23407227 8.01322266 12.55408203 8.57332031 12.88378906 9.15039062 C15.08223336 12.79330707 17.59293441 16.22539628 20.0625 19.6875 C20.55709717 20.38738037 21.05169434 21.08726074 21.5612793 21.80834961 C24.96289304 26.60509266 28.46786616 31.29048821 32 36 C32.33 24.12 32.66 12.24 33 0 C35.31 0 37.62 0 40 0 C40 16.83 40 33.66 40 51 C33 51 33 51 30.98706055 49.21850586 C30.19489136 47.97919312 30.19489136 47.97919312 29.38671875 46.71484375 C28.77763672 45.78994141 28.16855469 44.86503906 27.54101562 43.91210938 C26.92935547 42.93048828 26.31769531 41.94886719 25.6875 40.9375 C25.08744141 40.01388672 24.48738281 39.09027344 23.86914062 38.13867188 C21.89791611 35.10203264 19.94956726 32.0505887 18 29 C14.7 24.05 11.4 19.1 8 14 C7.67 26.21 7.34 38.42 7 51 C4.69 51 2.38 51 0 51 C0 34.17 0 17.34 0 0 Z " fill="#141414" transform="translate(629,980)"/>
<path d="M0 0 C8.42608696 5.09076087 8.42608696 5.09076087 10 9.8125 C8.6875 11.3125 8.6875 11.3125 7 12.8125 C4 12.8125 4 12.8125 1.5625 10.4375 C0.716875 9.57125 -0.12875 8.705 -1 7.8125 C-5.68764492 4.89396628 -10.65765398 5.20742766 -16 5.8125 C-20.696058 7.30111969 -24.58122214 9.37807392 -27 13.8125 C-29.68584841 19.70533159 -30.16997247 25.8704905 -28.3125 32.12890625 C-26.12516669 36.93192564 -23.29488576 39.79694191 -19 42.8125 C-14.00338752 44.47803749 -8.62007702 44.96854761 -3.70703125 42.80078125 C-1.71819096 41.55822249 0.14631194 40.24761334 2 38.8125 C2.825 38.214375 3.65 37.61625 4.5 37 C4.995 36.608125 5.49 36.21625 6 35.8125 C7.32 37.1325 8.64 38.4525 10 39.8125 C5.75884777 45.95010241 1.28773635 49.08268618 -6 50.8125 C-13.48968085 51.74871011 -19.76995463 51.28535309 -26 46.8125 C-28.75 44.375 -28.75 44.375 -31 41.8125 C-31.721875 41.008125 -32.44375 40.20375 -33.1875 39.375 C-37.93840744 32.65819983 -37.97683916 24.73187465 -37 16.8125 C-34.05501777 8.71379888 -28.29769633 3.4122127 -20.68359375 -0.32421875 C-14.49542188 -2.31488248 -6.11023163 -2.41121248 0 0 Z " fill="#151515" transform="translate(764,981.1875)"/>
<path d="M0 0 C5.82046332 3.85497104 5.82046332 3.85497104 7.875 6.75 C7.625 9 7.625 9 6.875 10.75 C5.25 11.5625 5.25 11.5625 2.875 11.75 C-0.125 9.4375 -0.125 9.4375 -1.5625 8.07421875 C-6.02457222 4.29261254 -10.39618765 4.21065377 -16.07421875 4.30078125 C-20.84546842 5.00333402 -23.93639407 7.20795823 -27.125 10.75 C-31.43948163 16.58253998 -30.82544504 22.78490042 -30.125 29.75 C-28.82113483 34.56030482 -26.95677116 37.08797805 -23.0625 40.1875 C-18.40529891 42.66473462 -14.34420385 43.40803434 -9.125 42.75 C-4.19123177 41.21168454 0.32509257 39.5098272 2.875 34.75 C7.75 36.5 7.75 36.5 8.875 38.75 C4.80382444 44.43368039 0.74410232 48.00709344 -6.125 49.75 C-14.82822373 50.90606731 -21.92052912 49.91842476 -29.125 44.75 C-34.80206558 39.7945953 -37.61907229 34.13470679 -38.4765625 26.703125 C-38.87063239 17.86766323 -37.22270909 11.27683262 -31.22265625 4.6484375 C-22.94080311 -3.07705315 -10.29992864 -5.55137116 0 0 Z " fill="#121212" transform="translate(510.125,982.25)"/>
<path d="M0 0 C3.3746369 2.04732146 6.22095302 4.44190605 8 8 C8.40282133 13.23667727 7.83087029 16.55148954 5 21 C1.76600497 23.930808 -0.95782706 24.88201816 -5.3125 25.375 C-10.04467594 24.89376177 -11.74863737 23.4025888 -15 20 C-17.07398081 16.32339766 -17.51233197 13.1840444 -17 9 C-12.92579041 1.57911825 -8.56514871 -1.82819141 0 0 Z " fill="#090808" transform="translate(1059,838)"/>
<path d="M0 0 C1.98 0 3.96 0 6 0 C6 14.52 6 29.04 6 44 C13.92 44 21.84 44 30 44 C30 45.98 30 47.96 30 50 C20.1 50 10.2 50 0 50 C0 33.5 0 17 0 0 Z " fill="#0D0C0C" transform="translate(543,981)"/>
<path d="M0 0 C2.31 0 4.62 0 7 0 C7 17.16 7 34.32 7 52 C4.69 52 2.38 52 0 52 C0 34.84 0 17.68 0 0 Z " fill="#202020" transform="translate(696,980)"/>
<path d="M0 0 C1.98 0 3.96 0 6 0 C6 16.5 6 33 6 50 C4.02 50 2.04 50 0 50 C0 33.5 0 17 0 0 Z " fill="#080808" transform="translate(596,981)"/>
<path d="M0 0 C3.35533204 1.7962379 5.83836831 3.86077645 8 7 C8.33 8.65 8.66 10.3 9 12 C-1.23 12 -11.46 12 -22 12 C-20.91264568 6.5632284 -19.99720026 5.52134308 -16 2 C-11.07388232 -1.28407845 -5.73658662 -0.89190746 0 0 Z " fill="#F2F2F2" transform="translate(429,887)"/>
<path d="M0 0 C14.52 0 29.04 0 44 0 C44 0.33 44 0.66 44 1 C40.37 1.33 36.74 1.66 33 2 C33 2.99 33 3.98 33 5 C26.09210828 9.41264566 20.32305557 12.61492123 12 11 C6.68729425 9.26580071 3.03423978 6.80421299 0 2 C0 1.34 0 0.68 0 0 Z " fill="#EEEFEE" transform="translate(407,915)"/>
<path d="M0 0 C2.475 1.485 2.475 1.485 5 3 C2.23906933 8.23123705 -1.47323848 11.79925352 -7 14 C-9.578125 13.9765625 -9.578125 13.9765625 -12.25 13.625 C-13.14203125 13.51414062 -14.0340625 13.40328125 -14.953125 13.2890625 C-15.62859375 13.19367188 -16.3040625 13.09828125 -17 13 C-16.67 12.01 -16.34 11.02 -16 10 C-17.65 10 -19.3 10 -21 10 C-21 9.67 -21 9.34 -21 9 C-20.3709375 8.98582031 -19.741875 8.97164062 -19.09375 8.95703125 C-10.94881086 8.50317169 -5.62096165 5.87880393 0 0 Z " fill="#0F0F0F" transform="translate(769,1017)"/>
<path d="M0 0 C4.875 1.75 4.875 1.75 6 4 C1.95441837 9.64794926 -2.13678789 13.33466177 -9 15 C-13.35787448 15.29935849 -17.64074093 15.24255537 -22 15 C-22 14.67 -22 14.34 -22 14 C-16.555 13.505 -16.555 13.505 -11 13 C-10.67 11.68 -10.34 10.36 -10 9 C-10.66 8.67 -11.32 8.34 -12 8 C-11.38511719 7.75765625 -10.77023437 7.5153125 -10.13671875 7.265625 C-4.07080031 4.89368596 -4.07080031 4.89368596 0 0 Z " fill="#1A1A1A" transform="translate(513,1017)"/>
<path d="M0 0 C3.3 0.33 6.6 0.66 10 1 C9.34 2.98 8.68 4.96 8 7 C8.78375 7.28875 9.5675 7.5775 10.375 7.875 C13 9 13 9 15 11 C10.70005972 11 10.11878117 10.70678046 6.9375 8.1875 C5.93009766 7.40439453 5.93009766 7.40439453 4.90234375 6.60546875 C3.1588817 5.13408702 1.50698096 3.71354533 0 2 C0 1.34 0 0.68 0 0 Z " fill="#CC1516" transform="translate(265,296)"/>
<path d="M0 0 C-0.33 0.66 -0.66 1.32 -1 2 C-9.91 2 -18.82 2 -28 2 C-28 1.34 -28 0.68 -28 0 C-24.45884475 -0.19812858 -20.91707384 -0.38159963 -17.375 -0.5625 C-16.37597656 -0.61857422 -15.37695312 -0.67464844 -14.34765625 -0.73242188 C-9.40612714 -0.97786206 -4.86409887 -1.12056885 0 0 Z " fill="#C82021" transform="translate(931,522)"/>
<path d="M0 0 C4 4 4 4 4 6 C3.01 6 2.02 6 1 6 C1 16.56 1 27.12 1 38 C0.67 38 0.34 38 0 38 C0 25.46 0 12.92 0 0 Z " fill="#D8D8D8" transform="translate(636,993)"/>
<path d="M0 0 C0.99 0 1.98 0 3 0 C3.33 1.32 3.66 2.64 4 4 C-4.58 4 -13.16 4 -22 4 C-22 3.67 -22 3.34 -22 3 C-14.74 2.67 -7.48 2.34 0 2 C0 1.34 0 0.68 0 0 Z " fill="#252525" transform="translate(288,938)"/>
<path d="M0 0 C-0.3125 2.375 -0.3125 2.375 -1 5 C-1.99 5.66 -2.98 6.32 -4 7 C-4.433125 6.0409375 -4.433125 6.0409375 -4.875 5.0625 C-5.82823451 2.84793921 -5.82823451 2.84793921 -8 2 C-4.91190305 0.23537317 -3.76687864 0 0 0 Z " fill="#2A2A2B" transform="translate(987,296)"/>
<path d="M0 0 C0.33 0 0.66 0 1 0 C1.33 1.65 1.66 3.3 2 5 C2.33 5 2.66 5 3 5 C2.51171875 11.0546875 2.51171875 11.0546875 2 13 C1.01 13.66 0.02 14.32 -1 15 C-0.67 10.05 -0.34 5.1 0 0 Z " fill="#F7D8DA" transform="translate(372,279)"/>
<path d="M0 0 C2.92824652 0.97608217 4.61426621 2.10786631 7 4 C2.545 5.485 2.545 5.485 -2 7 C-2.33 5.68 -2.66 4.36 -3 3 C-2.01 2.67 -1.02 2.34 0 2 C0 1.34 0 0.68 0 0 Z " fill="#080808" transform="translate(490,981)"/>
<path d="M0 0 C0.33 0 0.66 0 1 0 C1 3.63 1 7.26 1 11 C1.66 11 2.32 11 3 11 C3.33 12.32 3.66 13.64 4 15 C3.01 15 2.02 15 1 15 C-1.25495121 10.49009758 -1.2430836 6.94269981 -1 2 C-0.67 1.34 -0.34 0.68 0 0 Z " fill="#EDECED" transform="translate(529,901)"/>
<path d="M0 0 C-1.77444972 2.24606427 -2.58352485 2.95081002 -5.48046875 3.29296875 C-6.82044922 3.24076172 -6.82044922 3.24076172 -8.1875 3.1875 C-9.53908203 3.14689453 -9.53908203 3.14689453 -10.91796875 3.10546875 C-11.60503906 3.07066406 -12.29210937 3.03585937 -13 3 C-8.38322418 -0.07785055 -5.48548106 -1.5672803 0 0 Z " fill="#D42D2D" transform="translate(356,286)"/>
<path d="M0 0 C0 0.33 0 0.66 0 1 C-4.1196377 2.29243536 -7.66831683 3.26252625 -12 3 C-12.33 3.66 -12.66 4.32 -13 5 C-15.475 4.01 -15.475 4.01 -18 3 C-18 2.67 -18 2.34 -18 2 C-11.88019467 0.59545452 -6.28260706 -0.23268915 0 0 Z " fill="#BBBCBC" transform="translate(422,497)"/>
<path d="M0 0 C0.66 0.99 1.32 1.98 2 3 C1.38125 3.5775 0.7625 4.155 0.125 4.75 C-2.03727238 6.8136037 -2.03727238 6.8136037 -3 9.0625 C-4.23896532 11.46299531 -5.77730661 12.5182044 -8 14 C-6.6744419 10.37723685 -5.05653045 7.36494652 -2.875 4.1875 C-2.33617187 3.39730469 -1.79734375 2.60710937 -1.2421875 1.79296875 C-0.83226562 1.20128906 -0.42234375 0.60960937 0 0 Z " fill="#202022" transform="translate(720,315)"/>
<path d="M0 0 C0.66 0.33 1.32 0.66 2 1 C-2.52084209 5.49335977 -5.54972485 7.73672346 -12 8 C-9.38928701 5.93318555 -6.66162161 4.06890393 -3.875 2.25 C-3.19179688 1.80140625 -2.50859375 1.3528125 -1.8046875 0.890625 C-0.91136719 0.44976562 -0.91136719 0.44976562 0 0 Z " fill="#F6D4D7" transform="translate(973,507)"/>
<path d="M0 0 C0.8353125 0.37125 0.8353125 0.37125 1.6875 0.75 C1.0275 2.07 0.3675 3.39 -0.3125 4.75 C-0.910625 4.585 -1.50875 4.42 -2.125 4.25 C-4.42594336 3.6385876 -4.42594336 3.6385876 -7.3125 3.75 C-2.88173077 -0.31153846 -2.88173077 -0.31153846 0 0 Z " fill="#2E2E2E" transform="translate(524.3125,508.25)"/>
<path d="M0 0 C0.66 0.33 1.32 0.66 2 1 C0.11788404 4.48191452 -1.5009599 7.03178994 -5 9 C-5.99 8.67 -6.98 8.34 -8 8 C-5.36 5.36 -2.72 2.72 0 0 Z " fill="#CB1C1D" transform="translate(748,467)"/>
<path d="M0 0 C0.66 0.33 1.32 0.66 2 1 C0.8803014 2.00593243 -0.2459412 3.0045849 -1.375 4 C-2.31472656 4.8353125 -2.31472656 4.8353125 -3.2734375 5.6875 C-5 7 -5 7 -7 7 C-7.33 7.99 -7.66 8.98 -8 10 C-8.99 9.34 -9.98 8.68 -11 8 C-10.28972656 7.50628906 -9.57945312 7.01257813 -8.84765625 6.50390625 C-7.92855469 5.86324219 -7.00945313 5.22257812 -6.0625 4.5625 C-5.14597656 3.92441406 -4.22945312 3.28632813 -3.28515625 2.62890625 C-1.13879294 1.1939118 -1.13879294 1.1939118 0 0 Z " fill="#D0D0D1" transform="translate(981,304)"/>
<path d="M0 0 C1.258125 -0.04125 2.51625 -0.0825 3.8125 -0.125 C4.52019531 -0.14820313 5.22789062 -0.17140625 5.95703125 -0.1953125 C8 0 8 0 11 2 C11.33 1.34 11.66 0.68 12 0 C12 0.99 12 1.98 12 3 C10.56163249 2.88541307 9.12429034 2.75790884 7.6875 2.625 C6.88699219 2.55539062 6.08648438 2.48578125 5.26171875 2.4140625 C3 2 3 2 0 0 Z " fill="#3E3E3E" transform="translate(521,328)"/>
<path d="M0 0 C0 3.3 0 6.6 0 10 C-0.33 10 -0.66 10 -1 10 C-1 8.02 -1 6.04 -1 4 C-1.99 3.67 -2.98 3.34 -4 3 C-4.66 2.34 -5.32 1.68 -6 1 C-3 0 -3 0 0 0 Z " fill="#CE2A2C" transform="translate(372,278)"/>
<path d="M0 0 C1.04005702 3.38018531 1.08004482 6.4780279 1 10 C0.01 10 -0.98 10 -2 10 C-2.33 10.66 -2.66 11.32 -3 12 C-2.68950274 10.56206608 -2.3765224 9.1246682 -2.0625 7.6875 C-1.88847656 6.88699219 -1.71445312 6.08648438 -1.53515625 5.26171875 C-1 3 -1 3 0 0 Z " fill="#D5494B" transform="translate(715,514)"/>
<path d="M0 0 C0.99 0 1.98 0 3 0 C3.25 6.625 3.25 6.625 1 10 C1 7.36 1 4.72 1 2 C0.34 1.67 -0.32 1.34 -1 1 C-0.67 0.67 -0.34 0.34 0 0 Z " fill="#D3383C" transform="translate(1020,432)"/>
<path d="M0 0 C0.33 0 0.66 0 1 0 C1 1.65 1 3.3 1 5 C1.99 5 2.98 5 4 5 C3.67 6.32 3.34 7.64 3 9 C2.01 9 1.02 9 0 9 C0 6.03 0 3.06 0 0 Z " fill="#0F0F0F" transform="translate(543,1022)"/>
<path d="M0 0 C-1.33332095 3.99996286 -3.4957827 4.83782337 -7 7 C-7 6.01 -7 5.02 -7 4 C-2.65714286 0 -2.65714286 0 0 0 Z " fill="#E6E6E7" transform="translate(491,987)"/>
<path d="M0 0 C0.66 0.33 1.32 0.66 2 1 C-0.25 3.5625 -0.25 3.5625 -3 6 C-4.32 5.67 -5.64 5.34 -7 5 C-4.69 3.35 -2.38 1.7 0 0 Z " fill="#222323" transform="translate(815,312)"/>
<path d="M0 0 C3.36720387 1.39332574 4.9859524 2.9789286 7 6 C4 6 4 6 1.8125 4.125 C0 2 0 2 0 0 Z " fill="#ECECED" transform="translate(738,890)"/>
<path d="M0 0 C1 3 1 3 0 6 C-0.66 6.66 -1.32 7.32 -2 8 C-2.33 8.66 -2.66 9.32 -3 10 C-3.66 10 -4.32 10 -5 10 C-3.66511872 6.40608886 -2.03977277 3.24509304 0 0 Z " fill="#232323" transform="translate(742,280)"/>
<path d="M0 0 C0.66 0.33 1.32 0.66 2 1 C1.6875 2.9375 1.6875 2.9375 1 5 C0.01 5.33 -0.98 5.66 -2 6 C-2 2 -2 2 0 0 Z " fill="#DEDDDE" transform="translate(534,891)"/>
<path d="M0 0 C0.66 0.33 1.32 0.66 2 1 C0.1875 4 0.1875 4 -2 7 C-2.99 7 -3.98 7 -5 7 C-3.70700306 4.11562221 -2.34058637 2.12780579 0 0 Z " fill="#D8D7D9" transform="translate(331,889)"/>
<path d="M0 0 C1.32 1.65 2.64 3.3 4 5 C2.35 5.33 0.7 5.66 -1 6 C-0.67 4.02 -0.34 2.04 0 0 Z " fill="#202020" transform="translate(685,693)"/>
<path d="M0 0 C0.66 0.33 1.32 0.66 2 1 C1.34 2.98 0.68 4.96 0 7 C-0.99 6.67 -1.98 6.34 -3 6 C-2.01 4.02 -1.02 2.04 0 0 Z " fill="#0C0C0C" transform="translate(718,655)"/>
<path d="M0 0 C0.66 0.33 1.32 0.66 2 1 C2 1.66 2 2.32 2 3 C0.1875 4.6875 0.1875 4.6875 -2 6 C-2.99 5.67 -3.98 5.34 -5 5 C-3.35 3.35 -1.7 1.7 0 0 Z " fill="#D12728" transform="translate(739,476)"/>
<path d="M0 0 C-0.33 0.66 -0.66 1.32 -1 2 C-3.3140622 2.73075648 -5.64828869 3.40138258 -8 4 C-7.67 3.01 -7.34 2.02 -7 1 C-4.53721199 -0.231394 -2.7204945 -0.07159196 0 0 Z " fill="#FCF0EF" transform="translate(370,277)"/>
<path d="M0 0 C-0.33 0.99 -0.66 1.98 -1 3 C-4.0625 4.1875 -4.0625 4.1875 -7 5 C-7.66 4.34 -8.32 3.68 -9 3 C-2.25 0 -2.25 0 0 0 Z " fill="#CCCCCD" transform="translate(328,270)"/>
<path d="M0 0 C0.88492145 2.47778006 1.11637742 3.66056586 0.25 6.1875 C-1 8 -1 8 -4 9 C-2.80100302 5.9168649 -1.52299523 2.93720508 0 0 Z " fill="#1F1F1F" transform="translate(573,260)"/>
</svg>
